<?xml version="1.0" standalone="no"?>
<!DOCTYPE svg PUBLIC "-//W3C//DTD SVG 20010904//EN"
 "http://www.w3.org/TR/2001/REC-SVG-20010904/DTD/svg10.dtd">
<svg version="1.0" xmlns="http://www.w3.org/2000/svg"
 width="361.000000pt" height="361.000000pt" viewBox="0 0 361.000000 361.000000"
 preserveAspectRatio="xMidYMid meet">
<metadata>
Created by potrace 1.16, written by Peter Selinger 2001-2019
</metadata>
<g transform="translate(0.000000,361.000000) scale(0.100000,-0.100000)"
fill="#000000" stroke="none">
<path d="M1590 3540 c-183 -25 -416 -93 -555 -163 -69 -35 -228 -128 -235
-137 -3 -4 -12 -11 -21 -16 -40 -22 -112 -86 -220 -193 -219 -220 -362 -471
-439 -774 -80 -316 -76 -591 15 -905 85 -297 234 -543 459 -759 50 -49 106
-99 124 -113 19 -14 39 -30 45 -35 7 -6 45 -32 84 -58 234 -155 476 -240 779
-274 147 -16 164 -16 322 1 92 10 174 22 182 26 8 4 33 10 55 14 22 4 51 11
65 15 14 5 50 17 80 26 30 9 79 28 108 41 28 13 77 36 108 50 49 22 139 73
169 96 6 4 51 37 100 74 82 61 245 216 303 287 105 130 226 344 280 497 74
211 99 351 101 565 4 419 -128 800 -388 1115 -100 122 -279 280 -396 350 -22
13 -45 29 -51 35 -10 9 -163 87 -229 116 -71 31 -236 77 -395 109 -72 15 -368
21 -450 10z m355 -100 c447 -37 870 -277 1151 -653 87 -117 202 -343 239 -472
57 -192 67 -266 68 -475 0 -290 -37 -463 -152 -706 -176 -369 -474 -650 -866
-815 -38 -16 -140 -47 -215 -64 -41 -9 -88 -21 -105 -27 -46 -15 -398 -22
-485 -9 -130 18 -206 36 -330 78 -65 22 -74 26 -190 83 -191 93 -282 159 -435
314 -228 231 -366 495 -436 831 -30 147 -33 419 -6 570 18 100 70 292 87 324
5 9 25 51 44 94 141 314 416 600 722 751 127 63 172 82 234 101 30 9 66 21 80
26 60 21 172 40 260 46 52 3 97 7 99 9 7 7 112 4 236 -6z"/>
<path d="M1663 3243 c-44 -59 -95 -112 -115 -119 -14 -4 -18 -16 -18 -54 0
-47 1 -49 43 -69 27 -13 56 -41 82 -76 34 -48 44 -55 73 -55 41 0 72 16 72 36
0 19 85 104 105 104 12 0 15 13 15 60 0 59 0 60 -40 82 -21 13 -49 40 -62 61
-35 59 -46 67 -88 67 -33 0 -43 -5 -67 -37z"/>
<path d="M2057 2817 c-134 -136 -163 -156 -245 -174 -60 -12 -73 -12 -132 4
-63 16 -156 64 -196 101 -10 9 -50 44 -87 76 -101 88 -100 88 -108 -170 -4
-115 -11 -220 -15 -234 -12 -35 -47 -90 -56 -90 -5 0 -26 -11 -47 -24 -69 -44
-151 -59 -286 -52 -66 3 -136 8 -157 12 -31 5 -37 3 -43 -16 -6 -19 9 -39 103
-130 60 -59 121 -127 135 -151 36 -64 52 -165 37 -229 -11 -47 -86 -175 -127
-218 -67 -69 -104 -117 -101 -131 3 -14 28 -17 178 -23 269 -10 349 -28 371
-86 6 -15 16 -34 23 -42 12 -13 33 -68 44 -110 12 -51 13 -177 2 -262 -12 -85
-11 -101 1 -109 8 -5 18 -9 24 -9 5 0 52 44 105 98 160 164 176 174 295 180
75 4 99 1 131 -14 61 -28 173 -108 238 -169 33 -31 66 -54 75 -53 14 3 17 31
22 193 3 105 11 214 17 243 13 60 40 112 59 112 7 0 29 11 49 25 20 14 55 30
78 37 42 13 245 17 346 8 50 -5 55 -3 58 16 2 14 -23 45 -91 110 -125 120
-158 169 -178 269 -12 65 -13 90 -4 130 12 53 78 161 142 232 79 87 92 104 87
117 -4 10 -55 14 -217 18 -200 5 -215 7 -269 31 -32 14 -58 32 -58 39 0 7 -11
30 -25 50 -14 20 -32 63 -40 95 -16 63 -20 249 -6 322 9 43 -2 81 -22 81 -4 0
-54 -47 -110 -103z"/>
<path d="M2660 2838 c-14 -6 -62 -8 -107 -6 -82 4 -83 4 -115 -29 -29 -30 -30
-35 -18 -57 9 -18 11 -49 7 -105 -8 -119 22 -151 120 -131 41 9 66 9 99 1 44
-11 45 -11 80 26 34 36 35 38 24 82 -8 36 -7 58 4 101 14 53 14 56 -9 86 -28
36 -51 45 -85 32z"/>
<path d="M854 2756 c-32 -32 -35 -39 -27 -68 4 -18 8 -71 7 -118 0 -84 0 -85
33 -114 31 -26 36 -27 64 -16 20 9 55 11 107 7 83 -7 87 -6 119 35 20 27 20
30 6 80 -13 43 -14 60 -3 100 12 47 11 48 -21 80 -32 32 -34 33 -123 33 -50 1
-99 5 -108 9 -13 6 -27 -1 -54 -28z"/>
<path d="M2934 2033 c-8 -31 -88 -113 -110 -113 -18 0 -28 -41 -20 -83 5 -25
15 -37 49 -55 27 -14 55 -40 72 -67 27 -44 29 -45 80 -45 51 0 53 1 80 45 17
27 45 53 72 67 33 18 44 30 49 55 8 43 -2 70 -34 90 -40 25 -122 105 -122 120
0 9 -17 13 -55 13 -51 0 -55 -2 -61 -27z"/>
<path d="M525 1970 c-14 -22 -44 -52 -68 -67 -54 -35 -57 -40 -57 -89 0 -39
22 -74 46 -74 9 0 81 -68 111 -107 16 -19 25 -21 66 -16 30 4 47 10 47 19 0
19 65 89 106 115 27 16 34 27 34 52 0 46 -10 77 -25 77 -25 0 -97 62 -111 96
-14 33 -16 34 -69 34 -53 0 -56 -1 -80 -40z"/>
<path d="M2521 1222 c-8 -3 -25 -17 -39 -31 -20 -22 -23 -32 -16 -61 9 -43 10
-128 1 -155 -5 -15 2 -30 29 -59 l37 -39 54 14 c48 11 60 11 100 -4 49 -18 63
-15 101 26 22 23 23 30 14 71 -5 25 -9 78 -7 117 2 68 0 72 -29 100 -21 21
-37 28 -51 24 -43 -13 -112 -17 -145 -8 -19 6 -41 8 -49 5z"/>
<path d="M813 1106 c-31 -32 -32 -35 -26 -103 3 -44 1 -84 -7 -107 -12 -37
-11 -39 21 -73 30 -30 38 -34 69 -28 83 14 150 16 171 5 19 -11 26 -8 55 24
35 39 42 60 23 72 -8 5 -10 35 -6 100 l6 93 -31 26 c-25 21 -38 25 -62 20 -67
-14 -128 -17 -139 -6 -19 19 -42 12 -74 -23z"/>
<path d="M1764 761 c-11 -5 -27 -23 -33 -40 -14 -33 -76 -91 -98 -91 -9 0 -13
-17 -13 -60 0 -59 1 -60 39 -84 21 -14 49 -42 61 -63 32 -53 47 -63 97 -63 36
0 45 4 57 28 20 36 97 118 119 125 13 5 17 18 17 57 0 47 -2 51 -32 63 -31 13
-90 71 -113 111 -12 20 -71 30 -101 17z"/>
</g>
</svg>
