<?xml version="1.0" standalone="no"?>
<!DOCTYPE svg PUBLIC "-//W3C//DTD SVG 20010904//EN"
 "http://www.w3.org/TR/2001/REC-SVG-20010904/DTD/svg10.dtd">
<svg version="1.0" xmlns="http://www.w3.org/2000/svg"
 width="361.000000pt" height="361.000000pt" viewBox="0 0 361.000000 361.000000"
 preserveAspectRatio="xMidYMid meet">
<metadata>
Created by potrace 1.16, written by Peter Selinger 2001-2019
</metadata>
<g transform="translate(0.000000,361.000000) scale(0.100000,-0.100000)"
fill="#000000" stroke="none">
<path d="M1555 3520 c-11 -5 -35 -9 -52 -9 -34 -1 -183 -48 -262 -82 -25 -11
-55 -24 -66 -28 -166 -68 -295 -149 -457 -288 -195 -167 -381 -433 -479 -683
-40 -100 -108 -346 -108 -386 0 -10 -3 -95 -7 -189 -10 -255 19 -446 103 -675
81 -221 187 -393 338 -549 332 -343 776 -531 1253 -531 671 0 1253 361 1538
955 102 211 144 382 166 664 10 134 9 180 -5 321 -21 206 -46 299 -129 470
-103 214 -190 341 -315 462 -26 25 -82 81 -123 123 -41 42 -91 86 -110 98 -19
11 -37 23 -40 26 -11 13 -293 157 -355 182 -11 4 -36 14 -55 23 -76 32 -247
68 -420 87 -126 15 -390 20 -415 9z m-105 -277 c53 -19 157 -119 189 -180 32
-63 60 -176 71 -287 18 -184 29 -459 18 -479 -5 -10 -12 -16 -15 -14 -2 3 -6
61 -8 129 -3 139 -19 300 -41 433 -23 144 -112 298 -197 340 -17 8 -63 18
-102 22 -58 5 -78 2 -115 -15 -81 -37 -136 -113 -147 -202 -11 -97 65 -164
189 -165 79 0 105 18 115 78 8 49 -24 87 -73 87 -27 0 -34 -5 -42 -30 -8 -21
-16 -28 -26 -24 -20 8 -20 33 0 62 12 18 25 22 65 22 71 0 99 -21 99 -74 0
-48 -44 -127 -81 -147 -39 -20 -141 -6 -190 27 -68 46 -84 75 -82 146 2 96 42
161 148 246 50 39 154 51 225 25z m968 -52 c101 -52 172 -161 172 -263 0 -52
-3 -62 -35 -97 -41 -46 -82 -67 -147 -76 -55 -8 -108 7 -126 36 -12 19 -11 19
8 9 36 -19 146 -13 194 9 53 26 76 65 76 128 -1 87 -54 169 -139 212 -29 15
-59 21 -111 21 -81 0 -126 -18 -179 -72 -49 -50 -109 -180 -126 -273 -24 -133
-45 -344 -45 -447 0 -54 -4 -98 -9 -98 -17 0 -18 26 -10 210 12 292 31 404 91
528 31 65 104 144 160 175 47 25 176 24 226 -2z m-30 -220 c12 -11 22 -30 22
-46 0 -22 -4 -26 -22 -23 -15 2 -24 11 -26 25 -4 30 -37 39 -68 18 -36 -24
-49 -57 -36 -95 6 -17 7 -28 2 -25 -15 9 -32 75 -26 101 8 31 61 64 101 64 17
-1 40 -9 53 -19z m-501 -679 c43 -67 83 -146 83 -165 0 -8 7 -28 16 -45 22
-46 54 -162 54 -199 0 -18 5 -44 12 -58 8 -18 8 -35 1 -62 -6 -21 -16 -72 -22
-112 -7 -41 -14 -77 -16 -80 -3 -2 -24 4 -47 15 -59 26 -213 26 -281 0 -26
-10 -50 -16 -53 -13 -4 3 -11 41 -16 84 -5 43 -14 94 -20 114 -6 20 -7 42 -3
48 4 7 15 52 25 101 17 81 30 117 95 265 28 64 112 178 125 170 6 -4 27 -32
47 -63z m-391 -9 c58 -44 102 -88 127 -126 17 -26 17 -29 -18 -128 -19 -56
-35 -120 -35 -145 0 -24 -5 -44 -10 -44 -10 0 -69 37 -80 51 -3 3 -40 23 -83
44 l-79 38 4 81 c3 71 8 92 47 174 30 62 50 92 61 92 10 0 39 -17 66 -37z
m770 -6 c47 -74 74 -164 74 -247 0 -68 -3 -82 -17 -87 -52 -17 -170 -79 -192
-99 -14 -13 -29 -24 -32 -24 -4 0 -10 30 -14 66 -4 36 -18 98 -31 137 -13 39
-24 80 -24 92 0 25 100 123 180 177 33 22 32 23 56 -15z m-1073 -316 c146 -37
256 -90 324 -156 50 -48 53 -54 53 -101 0 -28 5 -77 12 -109 l11 -58 -34 -32
c-45 -41 -80 -90 -108 -147 -13 -27 -27 -48 -32 -48 -14 0 -137 67 -178 98
-108 79 -223 192 -293 285 -42 55 -148 266 -148 294 0 27 244 12 393 -26z
m1667 -10 c0 -22 -111 -231 -147 -276 -112 -142 -276 -277 -430 -355 -66 -34
-83 -37 -83 -15 0 8 -4 23 -10 33 -5 9 -18 37 -29 62 -11 25 -38 67 -62 93
l-42 48 11 67 c6 37 14 85 18 106 4 28 16 49 42 73 44 40 180 111 237 123 192
44 227 48 358 49 75 1 137 -3 137 -8z m-1806 -436 l108 -105 -53 0 c-59 -1
-104 -9 -189 -35 -103 -32 -102 -32 -145 21 -45 54 -115 160 -115 173 0 28 85
48 215 49 l70 1 109 -104z m1889 40 c26 -9 47 -19 47 -21 0 -13 -94 -145 -129
-182 -44 -46 -57 -49 -104 -28 -58 26 -141 47 -211 54 l-70 7 40 30 c21 16 71
60 109 98 l70 68 100 -4 c57 -3 120 -12 148 -22z m-1011 -15 c54 -15 133 -82
167 -141 16 -28 34 -77 41 -109 11 -51 10 -69 -4 -126 -28 -111 -52 -145 -144
-203 -89 -56 -162 -69 -264 -46 -94 20 -172 78 -209 151 -21 42 -24 63 -23
149 0 70 5 111 17 136 14 31 84 110 129 145 18 14 77 41 103 47 39 9 150 7
187 -3z m-737 -186 c39 -9 86 -25 105 -36 19 -11 56 -29 83 -40 l47 -21 0 -56
c0 -58 16 -114 51 -183 11 -22 17 -44 12 -47 -4 -4 -44 -16 -88 -27 -174 -42
-643 -9 -830 58 -84 31 -165 76 -165 92 0 11 43 45 57 46 6 0 13 3 15 8 5 11
150 75 253 112 50 18 117 43 150 56 33 13 84 29 114 34 30 6 57 12 59 15 10
10 68 5 137 -11z m1417 -30 c71 -17 103 -28 168 -57 61 -27 76 -33 138 -57
104 -40 278 -131 294 -154 12 -18 -3 -31 -70 -63 -148 -69 -278 -88 -602 -87
-155 0 -263 5 -295 12 -56 14 -135 42 -135 49 0 2 13 24 29 47 28 40 56 125
63 190 2 16 10 32 18 37 108 54 169 79 194 79 17 0 38 5 46 10 22 14 80 12
152 -6z"/>
</g>
</svg>
