<?xml version="1.0" standalone="no"?>
<!DOCTYPE svg PUBLIC "-//W3C//DTD SVG 20010904//EN"
 "http://www.w3.org/TR/2001/REC-SVG-20010904/DTD/svg10.dtd">
<svg version="1.0" xmlns="http://www.w3.org/2000/svg"
 width="361.000000pt" height="361.000000pt" viewBox="0 0 361.000000 361.000000"
 preserveAspectRatio="xMidYMid meet">
<metadata>
Created by potrace 1.16, written by Peter Selinger 2001-2019
</metadata>
<g transform="translate(0.000000,361.000000) scale(0.100000,-0.100000)"
fill="#000000" stroke="none">
<path d="M1670 3530 c-335 -29 -628 -141 -895 -341 -199 -150 -353 -326 -476
-547 -239 -430 -281 -935 -118 -1409 201 -581 689 -1001 1310 -1125 164 -32
473 -32 635 0 168 33 316 84 470 162 431 217 751 611 878 1080 71 263 79 517
26 792 -63 329 -245 667 -481 893 -189 181 -308 261 -554 370 -138 61 -326
105 -530 125 -111 10 -141 10 -265 0z m701 -339 c67 -53 142 -125 214 -204 44
-49 91 -101 105 -115 14 -15 32 -36 40 -48 8 -11 30 -38 47 -60 18 -21 45 -54
59 -71 l26 -33 -27 -10 c-14 -5 -50 -10 -80 -10 -30 0 -57 -4 -60 -10 -3 -5
-23 -10 -44 -10 -59 0 -101 -11 -101 -26 0 -8 4 -14 9 -14 5 0 13 -10 17 -22
4 -13 10 -25 13 -28 12 -9 81 -158 81 -174 0 -8 4 -17 9 -20 5 -4 12 -25 16
-49 4 -23 11 -46 15 -52 10 -13 18 -64 33 -222 13 -132 12 -142 -19 -411 -4
-29 -10 -55 -15 -58 -5 -3 -9 -16 -9 -29 0 -19 7 -26 28 -30 15 -4 34 -10 43
-15 8 -4 46 -11 82 -15 37 -4 67 -11 67 -16 0 -5 16 -9 35 -9 19 0 35 -4 35
-8 0 -5 28 -14 63 -20 108 -21 116 -24 128 -38 9 -10 -4 -28 -58 -82 -38 -38
-77 -80 -86 -93 -24 -34 -136 -154 -318 -343 -86 -88 -162 -171 -168 -183 -11
-22 -36 -31 -43 -15 -4 10 -157 109 -198 128 -8 4 -40 24 -70 44 -30 21 -65
40 -77 44 -13 4 -23 11 -23 16 0 7 -21 16 -44 18 -5 0 -12 4 -15 9 -12 16
-259 143 -278 143 -7 0 -13 4 -13 9 0 5 -14 13 -32 16 -18 4 -39 11 -48 15
-35 19 -89 40 -99 40 -11 0 -23 5 -68 28 -13 7 -32 12 -42 12 -11 0 -23 5 -26
10 -3 6 -18 10 -33 10 -22 0 -32 -9 -50 -42 -12 -24 -22 -47 -22 -51 0 -19
-51 -117 -60 -117 -18 0 -121 62 -127 76 -3 7 4 26 14 41 33 47 66 134 55 145
-11 11 -61 25 -152 42 -36 7 -72 15 -80 18 -8 4 -46 12 -85 18 -38 6 -91 15
-117 20 -27 6 -72 15 -100 21 -29 5 -82 13 -118 17 -71 8 -128 31 -78 32 15 0
30 5 33 10 3 6 17 10 31 10 13 0 24 4 24 9 0 5 26 12 58 16 31 4 62 10 67 15
6 4 24 10 40 13 17 3 50 11 75 17 102 25 140 32 237 43 56 7 105 15 109 20 4
4 54 7 110 7 57 0 105 4 108 9 3 5 1 31 -5 57 -6 27 -13 65 -16 84 -3 19 -9
40 -13 45 -4 6 -11 28 -15 50 -4 22 -10 45 -14 50 -4 6 -13 28 -20 49 -7 22
-26 60 -42 85 -16 25 -32 54 -35 64 -4 9 -10 17 -15 17 -4 0 -20 20 -35 45
-14 25 -29 45 -32 45 -20 0 -456 -227 -545 -284 -29 -18 -59 -36 -67 -39 -8
-4 -28 -16 -45 -27 -16 -11 -40 -25 -52 -31 -13 -7 -23 -15 -23 -19 0 -4 -8
-11 -18 -14 -25 -9 -59 -30 -83 -52 -43 -38 -12 9 61 93 108 124 462 482 482
489 32 10 22 49 -15 62 -18 7 -41 12 -50 12 -30 0 -26 17 15 58 34 35 48 42
79 42 21 0 41 -4 44 -10 3 -5 27 -10 52 -10 39 0 54 6 98 43 29 23 63 49 75
57 21 14 62 45 85 63 44 35 391 259 420 270 10 4 22 11 25 15 6 9 52 35 110
64 25 13 47 25 50 28 3 3 41 23 85 45 44 22 82 43 85 47 3 3 19 10 35 14 17 4
32 10 35 14 9 11 159 80 175 80 8 0 15 4 15 9 0 5 10 12 23 14 12 2 22 5 23 6
1 0 12 -8 25 -18z"/>
<path d="M2300 2560 c-8 -5 -29 -10 -47 -10 -17 0 -34 -4 -37 -9 -3 -5 -33
-12 -66 -16 -33 -4 -63 -11 -66 -16 -3 -5 -14 -9 -26 -9 -23 0 -184 -46 -210
-61 -10 -5 -27 -9 -37 -9 -11 0 -22 -4 -26 -9 -3 -6 -26 -13 -50 -17 -25 -3
-45 -10 -45 -15 0 -5 -8 -9 -18 -9 -16 0 -79 -25 -123 -50 -9 -5 -33 -12 -53
-15 -20 -4 -36 -11 -36 -16 0 -5 -6 -9 -14 -9 -7 0 -34 -9 -60 -20 -54 -24
-57 -39 -22 -108 35 -69 60 -129 82 -199 10 -35 22 -63 26 -63 5 0 8 -11 8
-24 0 -14 4 -27 9 -31 5 -3 13 -30 16 -60 4 -31 11 -58 16 -61 5 -3 9 -25 9
-50 0 -85 -2 -84 188 -84 196 0 548 -18 577 -30 11 -5 64 -12 117 -15 54 -4
100 -11 104 -16 13 -22 42 -8 48 24 64 313 49 586 -43 792 -54 119 -79 162
-116 197 -31 29 -76 37 -105 18z m-189 -452 c16 -13 46 -38 66 -55 19 -18 40
-33 44 -33 5 0 9 -7 9 -16 0 -18 -27 -17 -180 5 -118 18 -132 22 -119 37 6 8
16 14 21 14 5 0 21 11 36 25 15 14 32 25 39 25 7 0 13 5 13 10 0 18 41 11 71
-12z"/>
</g>
</svg>
