<?xml version="1.0" standalone="no"?>
<!DOCTYPE svg PUBLIC "-//W3C//DTD SVG 20010904//EN"
 "http://www.w3.org/TR/2001/REC-SVG-20010904/DTD/svg10.dtd">
<svg version="1.0" xmlns="http://www.w3.org/2000/svg"
 width="361.000000pt" height="361.000000pt" viewBox="0 0 361.000000 361.000000"
 preserveAspectRatio="xMidYMid meet">
<metadata>
Created by potrace 1.16, written by Peter Selinger 2001-2019
</metadata>
<g transform="translate(0.000000,361.000000) scale(0.100000,-0.100000)"
fill="#000000" stroke="none">
<path d="M1685 3553 c-200 -25 -317 -50 -450 -95 -576 -196 -991 -679 -1117
-1300 -20 -97 -23 -143 -23 -328 0 -185 3 -231 23 -328 145 -716 678 -1249
1394 -1394 97 -20 143 -23 328 -23 240 0 336 15 533 79 425 140 779 449 986
863 107 215 153 378 182 652 27 259 -37 605 -164 871 -59 126 -100 192 -209
339 -60 81 -231 247 -328 318 -135 99 -203 137 -380 216 -84 37 -261 88 -350
101 -25 4 -72 11 -105 16 -68 10 -275 19 -320 13z m16 -133 c4 -8 13 -35 20
-60 7 -25 16 -49 20 -55 4 -5 10 -26 14 -45 4 -19 12 -43 18 -55 24 -47 27
-56 27 -74 0 -11 4 -22 9 -25 5 -4 12 -24 16 -46 4 -22 11 -42 16 -46 5 -3 9
-16 9 -30 0 -13 3 -24 8 -24 4 0 16 -28 27 -62 10 -35 22 -70 26 -78 4 -8 17
-42 30 -75 12 -33 28 -76 36 -95 8 -19 19 -44 23 -55 4 -11 15 -36 23 -55 8
-19 21 -53 28 -75 8 -22 16 -42 19 -45 3 -3 14 -30 24 -60 11 -30 32 -79 47
-107 26 -50 24 -77 -4 -55 -7 5 -25 12 -42 15 -37 7 -94 22 -117 32 -11 4 -18
3 -18 -4 0 -14 356 -371 370 -371 5 0 10 18 10 40 0 22 -4 40 -9 40 -5 0 -12
20 -15 45 -4 24 -11 47 -17 50 -5 4 -9 13 -9 21 0 11 9 13 43 8 23 -4 46 -10
51 -15 6 -5 20 -9 33 -9 12 0 32 -4 45 -9 13 -5 43 -14 68 -21 25 -7 52 -16
61 -20 9 -5 37 -11 63 -15 25 -4 46 -11 46 -15 0 -4 20 -10 45 -13 24 -4 53
-11 62 -16 10 -5 52 -19 93 -31 41 -12 82 -26 91 -30 9 -5 37 -11 63 -15 25
-4 46 -11 46 -16 0 -5 8 -9 18 -9 9 0 37 -7 62 -16 25 -9 52 -17 60 -19 22 -5
110 -36 148 -53 l34 -14 -7 -81 c-10 -136 -57 -333 -102 -434 -13 -28 -23 -54
-23 -57 0 -21 -54 -117 -82 -145 -45 -46 -64 -51 -188 -51 -107 0 -133 7 -112
33 6 7 13 39 15 72 9 98 26 239 31 261 4 13 -2 29 -15 43 -18 19 -27 21 -72
15 -29 -4 -56 -10 -62 -14 -5 -4 -28 -10 -50 -13 -22 -3 -62 -11 -90 -17 -27
-7 -68 -12 -90 -13 l-40 -2 -8 110 c-10 138 -21 155 -108 155 -32 0 -61 5 -64
10 -3 6 -28 10 -54 10 -39 0 -52 5 -72 28 -14 15 -31 41 -39 57 -8 17 -22 41
-31 55 -14 21 -40 68 -93 165 -6 11 -13 22 -16 25 -3 3 -10 14 -16 25 -40 74
-67 121 -74 130 -6 9 -29 48 -84 150 -6 11 -13 22 -16 25 -10 10 -51 86 -102
190 -29 58 -54 107 -57 110 -4 3 -13 19 -22 35 -23 43 -43 79 -49 85 -3 3 -22
39 -44 80 -21 41 -42 79 -46 83 -4 5 -32 10 -61 11 -30 2 -119 9 -199 15 -135
11 -178 16 -350 41 -89 13 -220 28 -248 29 -28 1 -41 30 -20 45 8 6 39 31 68
56 29 24 76 60 104 80 28 19 53 38 54 43 2 4 10 7 17 7 8 0 20 6 27 13 51 46
350 177 406 177 10 0 22 4 27 9 10 9 98 25 225 40 84 11 101 9 111 -9z m-1087
-517 c4 -21 9 -57 11 -80 3 -23 10 -79 16 -125 5 -46 12 -108 15 -138 3 -30 9
-64 14 -75 5 -11 11 -72 14 -135 12 -241 15 -260 45 -273 14 -6 28 -14 31 -17
3 -3 21 -13 40 -22 19 -10 60 -31 90 -49 155 -88 190 -107 255 -135 22 -10 52
-26 68 -36 15 -11 27 -17 27 -14 0 3 24 -11 52 -30 29 -19 56 -34 61 -34 5 0
29 -13 54 -30 24 -16 48 -30 53 -30 4 0 10 -3 12 -7 2 -5 28 -21 58 -36 30
-16 78 -42 105 -58 28 -16 61 -34 75 -41 14 -7 27 -15 30 -18 9 -10 65 -41 83
-47 9 -3 17 -9 17 -13 0 -5 13 -11 28 -15 16 -3 43 -20 60 -38 28 -29 32 -41
37 -107 6 -76 22 -146 37 -167 9 -11 58 -19 181 -29 41 -4 67 -10 67 -17 0 -7
-7 -39 -15 -72 -8 -33 -14 -74 -15 -92 0 -17 -4 -34 -9 -37 -5 -3 -12 -24 -15
-46 -3 -22 -9 -58 -12 -80 -5 -31 -2 -46 11 -60 19 -21 73 -27 91 -11 5 5 38
12 74 15 90 8 191 22 215 30 30 10 45 -34 44 -128 -1 -70 -5 -88 -30 -131 -15
-27 -33 -59 -38 -70 -23 -50 -86 -91 -211 -136 -150 -55 -263 -79 -402 -86
l-88 -4 0 25 c0 14 -4 27 -9 30 -5 4 -12 24 -16 46 -4 22 -11 42 -16 46 -5 3
-9 16 -9 29 0 13 -4 27 -10 30 -5 3 -10 17 -10 30 0 13 -4 26 -9 29 -5 3 -12
26 -15 51 -4 24 -11 47 -17 50 -5 4 -9 15 -9 26 0 10 -4 27 -9 37 -12 23 -41
121 -41 138 0 8 -4 22 -9 32 -15 28 -61 182 -61 202 0 10 -4 22 -10 25 -5 3
-10 17 -10 30 0 13 -4 26 -9 29 -5 3 -11 20 -14 38 -3 18 -13 62 -22 98 -9 36
-19 80 -22 98 -3 18 -9 35 -14 38 -5 3 -9 12 -9 20 0 16 32 19 58 4 80 -44
202 -77 202 -54 0 16 -388 394 -404 394 -24 0 -31 -28 -12 -49 9 -10 16 -24
16 -32 0 -8 4 -19 9 -24 12 -14 53 -127 47 -132 -3 -3 -24 4 -48 15 -86 40
-137 62 -148 62 -5 0 -18 4 -28 9 -9 5 -35 17 -57 26 -22 10 -52 23 -67 30
-15 7 -41 16 -58 20 -16 4 -32 11 -35 16 -4 5 -13 9 -22 9 -8 0 -29 6 -46 14
-18 7 -57 23 -87 36 -30 12 -62 26 -70 30 -9 4 -31 11 -50 15 -19 4 -41 11
-50 15 -8 5 -42 18 -75 30 -33 12 -67 25 -76 30 -9 5 -34 12 -55 16 -22 4 -41
10 -44 13 -3 4 -23 11 -45 18 -22 6 -77 24 -123 40 l-84 28 6 50 c5 46 9 69
34 195 23 114 93 293 167 425 64 115 226 335 246 335 4 0 10 -17 13 -37z m580
-481 c72 -71 153 -149 181 -173 78 -70 264 -251 428 -418 360 -365 936 -939
977 -975 25 -21 78 -71 118 -110 l74 -70 -23 -19 c-23 -19 -24 -19 -53 15 -34
39 -333 352 -393 412 -23 22 -196 192 -385 376 -492 480 -716 707 -973 984
-139 149 -117 139 49 -22z"/>
</g>
</svg>
