<?xml version="1.0" standalone="no"?>
<!DOCTYPE svg PUBLIC "-//W3C//DTD SVG 20010904//EN"
 "http://www.w3.org/TR/2001/REC-SVG-20010904/DTD/svg10.dtd">
<svg version="1.0" xmlns="http://www.w3.org/2000/svg"
 width="361.000000pt" height="361.000000pt" viewBox="0 0 361.000000 361.000000"
 preserveAspectRatio="xMidYMid meet">
<metadata>
Created by potrace 1.16, written by Peter Selinger 2001-2019
</metadata>
<g transform="translate(0.000000,361.000000) scale(0.100000,-0.100000)"
fill="#000000" stroke="none">
<path d="M1580 3539 c-175 -20 -401 -91 -570 -177 -319 -164 -575 -419 -747
-742 -287 -541 -258 -1218 75 -1735 430 -669 1245 -961 2012 -720 164 52 416
187 538 288 338 282 537 611 624 1032 30 147 33 489 5 630 -55 278 -159 520
-314 730 -85 116 -255 285 -363 364 -47 33 -90 65 -96 70 -6 5 -41 25 -77 44
-36 20 -74 41 -84 46 -91 51 -259 110 -413 145 -146 34 -413 45 -590 25z m480
-119 c58 -6 109 -16 114 -21 6 -5 18 -9 29 -9 33 0 221 -63 241 -82 6 -4 17
-8 25 -8 9 0 27 -6 41 -13 38 -21 129 -71 148 -82 27 -16 146 -98 152 -104 3
-3 27 -24 53 -45 87 -70 178 -166 263 -279 46 -62 84 -117 84 -124 0 -7 4 -13
8 -13 4 0 13 -12 19 -27 7 -16 23 -46 36 -68 13 -22 29 -56 37 -75 21 -57 41
-104 51 -122 5 -10 9 -26 9 -36 0 -10 3 -22 7 -26 4 -3 8 -14 9 -24 6 -38 16
-78 24 -97 22 -50 40 -222 40 -375 0 -126 -10 -234 -30 -325 -6 -27 -14 -63
-17 -80 -3 -16 -9 -34 -13 -40 -4 -5 -11 -27 -14 -49 -4 -21 -18 -61 -30 -90
-13 -28 -29 -67 -37 -86 -7 -19 -28 -61 -46 -93 -18 -33 -33 -61 -33 -63 0 -2
-17 -30 -38 -63 -35 -53 -56 -82 -126 -169 -29 -37 -176 -181 -217 -214 -19
-15 -47 -38 -64 -50 -16 -12 -32 -25 -35 -28 -3 -4 -12 -10 -20 -14 -17 -8
-38 -20 -95 -57 -22 -14 -56 -33 -75 -42 -42 -19 -121 -53 -170 -74 -19 -8
-42 -18 -50 -23 -9 -4 -36 -11 -60 -15 -25 -4 -49 -11 -55 -15 -5 -4 -26 -10
-45 -13 -19 -3 -64 -12 -100 -19 -86 -17 -473 -17 -555 0 -33 7 -76 16 -95 19
-19 3 -39 9 -45 13 -5 4 -30 11 -55 15 -24 4 -51 11 -60 15 -8 5 -32 15 -52
24 -173 73 -299 138 -306 157 -2 5 -8 9 -13 9 -36 0 -345 281 -387 353 -9 15
-19 27 -23 27 -4 0 -12 14 -19 30 -7 17 -16 30 -21 30 -5 0 -14 10 -19 23 -6
12 -21 40 -35 62 -41 65 -105 193 -105 210 0 8 -4 15 -10 15 -5 0 -10 8 -10
19 0 10 -7 32 -15 47 -8 16 -15 39 -15 51 0 12 -4 25 -10 28 -5 3 -10 19 -10
35 0 16 -4 31 -9 34 -5 3 -11 23 -14 43 -3 21 -11 65 -17 98 -15 77 -15 463 0
535 44 219 71 299 164 489 47 95 50 101 58 101 5 0 8 6 8 13 0 7 8 22 18 33 9
11 23 29 30 40 39 60 53 79 107 141 159 181 379 341 585 426 19 8 55 24 80 34
25 11 59 24 75 28 17 5 37 10 45 12 8 3 31 7 50 10 19 3 40 9 45 13 6 5 51 12
100 16 50 4 99 11 110 15 27 11 276 5 405 -11z"/>
<path d="M1767 3123 c-9 -15 31 -31 97 -38 33 -4 66 -11 75 -15 9 -5 43 -19
76 -31 139 -52 255 -130 369 -246 96 -100 137 -156 190 -263 21 -41 42 -83 47
-92 5 -10 9 -25 9 -33 0 -8 4 -23 9 -33 34 -68 55 -229 47 -372 -7 -137 -15
-202 -27 -215 -5 -5 -9 -21 -9 -36 0 -15 -4 -31 -10 -34 -5 -3 -10 -13 -10
-21 0 -25 -88 -197 -135 -265 -49 -71 -199 -226 -227 -235 -10 -3 -18 -10 -18
-15 0 -5 -4 -9 -9 -9 -5 0 -33 -16 -62 -35 -30 -19 -59 -35 -66 -35 -7 0 -13
-4 -13 -9 0 -5 -14 -13 -32 -16 -18 -4 -39 -11 -48 -15 -8 -4 -26 -12 -40 -18
-14 -5 -38 -15 -53 -21 -15 -6 -38 -11 -50 -11 -13 0 -29 -6 -35 -12 -18 -18
-416 -18 -433 0 -7 6 -22 12 -33 12 -34 0 -172 51 -251 92 -36 19 -55 31 -143
90 -68 45 -208 198 -259 283 -25 42 -99 191 -110 226 -31 87 -55 246 -54 347
0 54 -3 72 -12 69 -6 -2 -15 -26 -18 -53 -32 -245 -32 -256 -21 -343 7 -47 14
-111 18 -141 3 -30 9 -64 14 -75 4 -11 13 -40 20 -65 7 -25 19 -59 26 -77 8
-17 14 -35 14 -41 0 -30 114 -229 180 -312 42 -55 205 -219 240 -242 14 -10
54 -38 90 -63 36 -25 70 -45 77 -45 6 0 13 -4 15 -8 2 -4 35 -21 73 -37 39
-16 74 -32 80 -37 5 -4 19 -8 32 -8 13 0 23 -4 23 -10 0 -5 27 -12 60 -16 33
-4 60 -10 60 -14 0 -14 101 -22 285 -23 173 -1 269 7 290 23 6 5 36 11 68 15
31 4 57 11 57 16 0 5 9 9 20 9 11 0 28 4 38 9 9 6 58 29 107 53 50 23 92 46
93 50 2 4 8 8 14 8 6 0 23 10 38 23 16 12 50 38 77 57 103 74 276 265 309 340
4 8 13 22 20 30 22 26 93 175 100 208 4 18 11 35 15 38 5 3 9 16 9 29 0 13 5
27 10 30 6 3 10 19 10 34 0 15 4 31 9 37 6 5 15 74 21 154 11 147 2 365 -19
434 -5 17 -15 51 -22 76 -7 25 -16 50 -20 55 -4 6 -10 27 -14 48 -4 20 -11 37
-16 37 -5 0 -9 5 -9 11 0 52 -166 303 -270 408 -69 70 -212 178 -280 213 -25
13 -46 26 -48 31 -2 4 -8 7 -13 7 -5 0 -36 13 -70 30 -34 16 -78 33 -98 36
-20 4 -38 10 -41 14 -9 13 -211 46 -341 56 -53 4 -89 3 -92 -3z"/>
<path d="M1520 2739 c-52 -5 -96 -13 -98 -19 -2 -5 -14 -10 -26 -10 -12 0 -57
-20 -100 -45 -44 -25 -81 -45 -84 -45 -2 0 -19 -12 -38 -27 -18 -16 -44 -37
-58 -48 -46 -36 -168 -236 -183 -298 -2 -12 -9 -40 -15 -62 -16 -57 -22 -285
-9 -298 6 -6 11 -22 11 -37 0 -47 48 -165 95 -235 31 -46 56 -75 105 -125 58
-57 71 -67 150 -113 92 -54 93 -55 136 -63 22 -3 44 -10 49 -14 40 -29 320
-29 360 0 6 4 27 10 48 14 21 4 55 16 75 28 105 58 138 78 153 95 9 10 29 30
45 44 99 89 190 241 215 360 24 116 13 336 -20 414 -32 74 -72 154 -88 175
-20 27 -171 179 -194 195 -35 25 -162 85 -179 85 -10 0 -21 4 -25 9 -5 9 -53
15 -185 25 -25 2 -88 -1 -140 -5z m-79 -366 c0 -10 8 -31 18 -48 17 -28 21
-30 89 -33 40 -2 72 -7 72 -13 0 -5 -16 -33 -35 -62 -19 -28 -35 -57 -35 -62
0 -6 16 -26 35 -45 55 -54 45 -70 -46 -70 -46 0 -50 -2 -75 -39 -36 -56 -50
-58 -74 -11 -11 22 -26 40 -33 41 -6 0 -37 0 -68 -1 -78 -2 -89 15 -44 66 19
21 35 44 35 49 0 6 -16 35 -34 65 -19 30 -32 58 -30 62 3 4 35 8 72 8 37 0 72
4 78 8 13 9 44 71 44 89 0 20 30 16 31 -4z"/>
</g>
</svg>
