<?xml version="1.0" standalone="no"?>
<!DOCTYPE svg PUBLIC "-//W3C//DTD SVG 20010904//EN"
 "http://www.w3.org/TR/2001/REC-SVG-20010904/DTD/svg10.dtd">
<svg version="1.0" xmlns="http://www.w3.org/2000/svg"
 width="361.000000pt" height="361.000000pt" viewBox="0 0 361.000000 361.000000"
 preserveAspectRatio="xMidYMid meet">
<metadata>
Created by potrace 1.16, written by Peter Selinger 2001-2019
</metadata>
<g transform="translate(0.000000,361.000000) scale(0.100000,-0.100000)"
fill="#000000" stroke="none">
<path d="M1605 3499 c-44 -4 -98 -13 -120 -18 -22 -6 -56 -13 -75 -17 -58 -10
-214 -60 -235 -74 -5 -4 -21 -11 -35 -15 -41 -12 -235 -112 -263 -135 -7 -5
-50 -37 -97 -71 -138 -100 -293 -263 -392 -414 -97 -148 -121 -193 -177 -332
-123 -305 -151 -658 -79 -992 107 -499 436 -928 888 -1157 173 -87 313 -133
535 -175 106 -20 427 -17 540 5 262 52 467 133 664 263 47 31 88 59 91 62 3 3
28 24 55 46 140 111 292 292 394 470 242 422 290 925 134 1397 -104 317 -326
626 -588 821 -27 20 -54 40 -60 45 -5 4 -48 31 -95 58 -328 196 -691 274
-1085 233z m416 -114 c102 -15 215 -39 254 -55 11 -5 45 -16 75 -25 101 -30
322 -146 415 -218 210 -161 386 -370 496 -589 l40 -80 -26 -37 c-14 -20 -50
-70 -80 -111 -30 -41 -67 -93 -82 -115 -16 -22 -31 -41 -35 -43 -5 -2 -8 -8
-8 -13 0 -5 -18 -32 -40 -61 -22 -29 -40 -61 -40 -71 0 -20 29 -77 144 -277
42 -74 81 -143 86 -152 6 -10 16 -28 23 -40 6 -13 14 -25 17 -28 3 -3 16 -25
29 -50 13 -25 34 -64 47 -88 l23 -44 -40 -100 c-69 -174 -145 -304 -262 -448
-325 -401 -852 -629 -1362 -590 -121 10 -234 26 -280 40 -234 71 -320 107
-455 189 -290 174 -524 443 -660 758 l-39 90 24 48 c14 26 28 52 33 59 5 6 20
31 33 56 13 25 27 47 30 50 3 3 15 25 27 50 23 48 79 148 92 165 4 6 20 33 35
60 69 122 95 175 95 191 0 9 -19 42 -42 72 -23 30 -47 63 -53 72 -5 10 -53 77
-105 150 -52 72 -105 146 -116 164 l-22 32 49 97 c110 220 270 417 459 564 75
58 228 153 297 183 27 12 62 27 78 35 37 16 165 59 225 76 164 45 441 60 621
34z"/>
<path d="M1590 3223 c-79 -6 -212 -33 -315 -65 -201 -62 -356 -166 -444 -297
-95 -142 -94 -227 1 -421 35 -69 37 -78 27 -119 -15 -67 -44 -117 -97 -164
-12 -12 -29 -31 -37 -44 -14 -21 -14 -24 2 -41 10 -10 40 -42 66 -71 46 -52
48 -53 74 -40 58 30 63 34 63 41 0 5 6 8 13 8 6 0 26 8 42 17 23 12 57 16 140
17 103 1 115 -1 170 -29 122 -60 196 -131 255 -245 19 -36 25 -66 28 -142 2
-54 8 -98 13 -98 5 0 9 -7 9 -16 0 -13 12 -15 76 -12 71 3 75 2 70 -17 -3 -11
-6 -30 -6 -42 0 -16 -4 -21 -15 -17 -23 9 -45 -15 -45 -47 0 -15 11 -58 24
-96 14 -37 28 -85 31 -106 11 -58 21 -53 39 21 28 114 34 112 63 -16 5 -17 12
-31 18 -30 12 4 75 194 75 230 0 28 -31 55 -50 43 -6 -3 -10 4 -10 17 0 13 -3
32 -6 43 -5 19 -1 20 68 17 69 -3 75 -2 86 20 7 13 14 61 15 108 3 76 7 93 40
155 20 39 56 90 79 114 40 41 137 111 155 111 4 0 22 8 38 17 38 21 247 25
267 5 6 -6 19 -12 28 -12 8 0 39 -16 69 -35 59 -39 67 -41 78 -20 5 8 32 39
62 70 61 63 63 51 -25 143 -30 31 -48 63 -63 110 -24 74 -22 89 22 159 62 98
83 231 50 315 -21 57 -102 166 -157 214 -71 62 -85 72 -170 113 -171 83 -348
126 -565 138 l-121 6 0 -494 c0 -272 -4 -500 -9 -507 -25 -40 -31 62 -31 524
l0 474 -72 -2 c-40 -1 -93 -3 -118 -5z m240 -1368 c13 -127 22 -265 16 -250
-2 6 -9 43 -16 83 -13 80 -33 95 -46 35 -4 -21 -8 -41 -9 -45 -2 -5 -4 -25 -5
-45 -1 -24 -4 -31 -7 -18 -5 19 3 104 29 330 14 114 17 107 38 -90z"/>
<path d="M1000 1984 c-44 -9 -104 -41 -141 -76 -64 -60 -93 -202 -94 -448 0
-192 14 -295 60 -435 69 -211 171 -367 304 -469 139 -107 328 -146 262 -55 -9
13 -41 49 -71 80 -55 55 -112 156 -144 250 -47 144 -59 363 -27 527 30 156 82
263 168 343 35 34 117 79 142 79 23 0 10 55 -19 85 -43 44 -50 49 -105 74 -27
13 -58 28 -69 33 -20 11 -226 20 -266 12z"/>
<path d="M2385 1981 c-43 -7 -144 -51 -170 -73 -82 -68 -96 -114 -40 -132 62
-20 139 -82 182 -146 89 -133 127 -294 120 -505 -8 -237 -74 -428 -187 -544
-96 -99 -108 -131 -48 -131 142 0 355 170 456 365 39 74 80 172 88 208 3 18
10 37 14 42 4 6 13 39 19 75 6 36 15 81 19 100 9 45 9 374 -1 420 -4 19 -11
58 -16 85 -18 100 -31 125 -82 169 -70 60 -94 68 -209 71 -58 2 -123 0 -145
-4z"/>
</g>
</svg>
