<?xml version="1.0" standalone="no"?>
<!DOCTYPE svg PUBLIC "-//W3C//DTD SVG 20010904//EN"
 "http://www.w3.org/TR/2001/REC-SVG-20010904/DTD/svg10.dtd">
<svg version="1.0" xmlns="http://www.w3.org/2000/svg"
 width="361.000000pt" height="361.000000pt" viewBox="0 0 361.000000 361.000000"
 preserveAspectRatio="xMidYMid meet">
<metadata>
Created by potrace 1.16, written by Peter Selinger 2001-2019
</metadata>
<g transform="translate(0.000000,361.000000) scale(0.100000,-0.100000)"
fill="#000000" stroke="none">
<path d="M1515 3529 c-134 -24 -197 -38 -215 -48 -9 -5 -30 -12 -49 -16 -18
-4 -44 -13 -59 -21 -15 -8 -32 -14 -38 -14 -6 0 -38 -13 -72 -30 -34 -16 -64
-30 -67 -30 -12 0 -217 -128 -270 -169 -346 -264 -563 -608 -657 -1041 -19
-91 -22 -135 -23 -325 0 -191 3 -235 23 -333 144 -714 686 -1256 1389 -1392
118 -23 137 -24 128 -10 -3 6 -23 10 -43 10 -20 0 -82 12 -137 26 -55 14 -120
30 -145 37 -25 6 -47 13 -50 17 -3 3 -30 14 -60 24 -30 10 -62 25 -70 32 -8 7
-27 16 -42 19 -16 4 -28 11 -28 15 0 4 -12 11 -26 14 -28 7 -207 123 -212 137
-2 5 -9 9 -17 9 -29 0 -296 281 -350 369 -5 9 -12 18 -15 21 -12 12 -58 88
-75 125 -11 22 -22 42 -25 45 -6 5 -43 80 -45 90 0 3 -8 21 -17 40 -20 44 -32
80 -53 155 -9 33 -21 69 -25 80 -5 11 -11 36 -14 55 -3 19 -10 64 -16 100 -17
106 -19 354 -3 475 20 162 24 185 34 191 5 3 9 16 9 29 0 13 4 34 9 47 5 13
17 47 26 76 8 29 27 77 40 107 14 29 25 58 25 64 0 5 3 11 8 13 4 2 18 26 32
53 56 114 183 286 277 375 l68 65 -65 -70 c-36 -38 -67 -72 -70 -75 -17 -16
-110 -151 -110 -159 0 -5 -3 -11 -8 -13 -17 -7 -119 -199 -162 -303 -38 -94
-76 -246 -95 -379 -19 -138 -19 -147 3 -153 9 -3 40 -33 68 -67 l50 -61 12
-150 c11 -145 33 -243 86 -394 29 -80 22 -80 -69 4 -38 35 -71 62 -73 61 -6
-6 53 -154 88 -221 95 -180 127 -229 209 -325 57 -65 144 -154 197 -200 63
-54 208 -160 219 -160 3 0 22 -10 43 -23 86 -54 155 -87 258 -122 60 -20 118
-41 129 -45 68 -26 278 -55 220 -30 -11 5 -33 9 -49 9 -25 1 -79 36 -132 86
-6 5 -35 30 -64 55 -29 25 -58 50 -64 55 -12 11 -243 212 -315 274 -12 11 -57
51 -99 88 -41 37 -84 76 -96 86 -12 10 -34 30 -51 44 -77 67 -183 160 -206
183 -59 56 -159 415 -159 571 0 21 4 39 8 39 5 0 40 -37 77 -82 79 -95 87
-106 112 -133 10 -12 87 -103 171 -203 84 -100 165 -195 180 -211 45 -48 74
-81 182 -211 57 -69 107 -127 110 -130 3 -3 64 -74 135 -159 72 -84 165 -194
208 -245 43 -50 82 -101 87 -113 6 -15 18 -23 34 -23 35 0 42 -18 9 -23 -16
-3 60 -4 167 -2 151 2 220 8 304 24 708 142 1245 680 1388 1393 30 148 32 459
5 607 -54 293 -164 536 -350 774 -76 98 -202 224 -285 287 -19 14 -39 30 -45
35 -37 33 -187 123 -282 169 -166 81 -320 129 -513 161 -129 21 -415 18 -547
-6z m953 -199 c9 -5 35 -17 57 -26 55 -25 242 -135 290 -173 22 -17 51 -40 65
-51 134 -104 339 -355 403 -492 l18 -38 -71 -117 c-93 -154 -94 -154 -116
-112 -111 216 -399 499 -621 610 -37 19 -70 36 -73 39 -3 3 -22 13 -42 22 -21
10 -38 25 -38 33 0 17 64 268 75 298 8 19 26 22 53 7z m-1262 -39 c3 -14 19
-77 34 -139 l28 -113 -36 -23 c-21 -13 -68 -40 -107 -61 -120 -64 -170 -102
-308 -235 -113 -108 -244 -267 -301 -364 -22 -37 -42 -69 -46 -71 -8 -5 -140
213 -140 232 0 17 52 112 97 175 18 26 33 52 33 57 0 5 4 11 8 13 5 2 23 23
41 48 36 51 250 270 263 270 5 0 14 5 21 10 7 6 28 24 47 40 19 16 40 30 45
30 6 0 18 9 28 20 9 11 23 20 31 20 8 0 16 3 18 8 5 13 109 62 119 56 5 -3 9
1 9 8 0 13 44 38 67 38 7 0 13 4 13 10 0 20 30 -4 36 -29z m844 -209 c122 -19
280 -68 280 -87 0 -6 -6 -19 -13 -29 -11 -15 -17 -15 -42 -6 -43 17 -181 56
-245 70 -68 14 -458 8 -544 -9 -32 -6 -86 -21 -119 -32 -68 -23 -90 -19 -85
13 2 17 15 27 48 39 25 9 52 18 60 22 8 3 49 11 90 17 41 6 76 13 79 16 10 9
415 -2 491 -14z m-1320 -5 c0 -2 -15 -16 -32 -33 l-33 -29 29 33 c28 30 36 37
36 29z m575 -199 c9 -40 20 -95 25 -123 4 -27 29 -131 55 -230 26 -99 50 -193
52 -210 3 -16 22 -110 44 -207 33 -149 113 -662 133 -858 3 -30 8 -77 11 -103
3 -27 7 -52 10 -56 6 -11 53 -345 110 -779 9 -68 15 -126 13 -128 -2 -2 -38
51 -79 118 -41 66 -104 169 -140 227 -36 58 -103 167 -149 241 -109 178 -173
283 -252 410 -36 58 -80 130 -98 160 -70 115 -170 279 -229 374 -33 55 -61
103 -61 107 0 5 -18 32 -40 61 -22 29 -40 56 -40 61 0 4 -24 44 -53 90 -29 45
-64 101 -76 124 l-24 41 33 64 c32 60 116 189 181 273 39 52 221 231 278 275
50 39 237 138 263 139 12 1 20 -16 33 -71z m1098 11 c34 -18 72 -37 84 -43 13
-6 23 -14 23 -18 0 -5 6 -8 14 -8 7 0 58 -33 112 -74 108 -80 273 -246 334
-335 43 -64 110 -192 110 -211 0 -14 -18 -46 -97 -167 -29 -46 -53 -85 -53
-87 0 -4 -112 -189 -163 -269 -20 -31 -37 -60 -37 -62 0 -3 -20 -36 -44 -73
-24 -37 -63 -101 -88 -142 -24 -41 -75 -124 -113 -185 -37 -60 -91 -148 -120
-195 -29 -47 -99 -159 -155 -250 -57 -91 -147 -238 -201 -328 -111 -183 -159
-256 -165 -249 -3 3 0 33 5 68 6 35 27 181 46 324 143 1044 138 1012 205 1335
23 107 45 224 50 260 18 124 37 216 116 543 33 141 51 197 61 197 8 0 42 -14
76 -31z m-468 -55 c136 -103 135 -101 75 -104 -97 -5 -401 1 -398 9 3 9 79 75
119 104 13 9 39 28 58 42 40 29 41 28 146 -51z m-74 -485 c14 -41 45 -128 69
-194 24 -66 43 -129 43 -140 0 -11 -8 -47 -17 -80 -9 -32 -39 -149 -67 -258
-52 -205 -73 -267 -88 -267 -14 0 -26 46 -60 215 -17 83 -42 205 -56 273 -22
104 -25 128 -15 160 18 56 79 223 95 257 7 17 21 49 30 73 10 24 23 41 29 39
6 -2 23 -37 37 -78z m1377 -236 c37 -73 76 -174 96 -250 11 -41 12 -61 4 -79
-16 -35 -25 -30 -33 22 -12 85 -90 266 -170 400 -16 27 -17 34 -6 48 12 15 17
11 46 -31 17 -27 45 -76 63 -110z m-2754 109 c4 -10 0 -32 -8 -48 -69 -141
-110 -262 -137 -403 l-12 -64 -19 23 c-12 15 -16 31 -12 49 18 84 57 227 63
236 4 5 16 33 26 60 26 72 74 165 84 165 6 0 12 -8 15 -18z m2995 -557 c-12
-183 -40 -326 -70 -366 -18 -24 -19 -22 -19 151 -1 96 -5 209 -10 250 -10 83
-8 87 59 168 l36 43 6 -63 c4 -35 3 -117 -2 -183z m-169 -175 c0 -109 -5 -222
-11 -249 -11 -52 -21 -63 -188 -207 -19 -16 -39 -34 -45 -39 -6 -6 -47 -42
-91 -80 -44 -39 -85 -74 -91 -80 -6 -5 -33 -29 -61 -53 -28 -24 -66 -57 -85
-75 -44 -41 -147 -131 -252 -220 -27 -23 -54 -47 -60 -52 -6 -6 -40 -35 -76
-65 -35 -30 -80 -69 -100 -86 -138 -123 -197 -163 -243 -164 -10 0 -15 -4 -12
-10 4 -6 -6 -10 -22 -9 -15 0 -22 3 -15 6 6 2 12 12 12 21 1 10 17 35 36 57
19 22 92 108 162 190 69 83 129 152 133 155 4 3 23 25 44 50 21 25 66 77 101
115 35 39 109 127 166 197 91 111 160 194 311 372 23 27 55 62 70 78 16 15 45
50 65 77 20 26 62 77 94 112 31 35 74 85 95 111 21 27 44 48 51 48 9 0 12 -47
12 -200z"/>
<path d="M142 1755 c-1 -55 3 -107 8 -115 11 -18 12 50 0 150 -7 64 -7 63 -8
-35z"/>
<path d="M163 1535 c0 -22 2 -30 4 -17 2 12 2 30 0 40 -3 9 -5 -1 -4 -23z"/>
<path d="M171 1463 c0 -5 4 -17 9 -28 8 -18 9 -17 9 8 1 15 -3 27 -9 27 -5 0
-10 -3 -9 -7z"/>
<path d="M191 1385 c1 -19 18 -51 18 -35 0 8 -4 22 -9 30 -5 8 -9 11 -9 5z"/>
<path d="M1732 13 c37 -2 100 -2 140 0 40 1 10 3 -67 3 -77 0 -110 -1 -73 -3z"/>
</g>
</svg>
