<?xml version="1.0" standalone="no"?>
<!DOCTYPE svg PUBLIC "-//W3C//DTD SVG 20010904//EN"
 "http://www.w3.org/TR/2001/REC-SVG-20010904/DTD/svg10.dtd">
<svg version="1.0" xmlns="http://www.w3.org/2000/svg"
 width="361.000000pt" height="361.000000pt" viewBox="0 0 361.000000 361.000000"
 preserveAspectRatio="xMidYMid meet">
<metadata>
Created by potrace 1.16, written by Peter Selinger 2001-2019
</metadata>
<g transform="translate(0.000000,361.000000) scale(0.100000,-0.100000)"
fill="#000000" stroke="none">
<path d="M1625 3513 c-48 -4 -198 -31 -240 -43 -94 -27 -174 -53 -202 -66 -17
-8 -34 -14 -37 -14 -4 0 -42 -17 -84 -38 -346 -169 -620 -437 -786 -769 -136
-272 -193 -530 -183 -833 8 -266 58 -462 179 -708 101 -208 270 -423 438 -559
19 -15 40 -32 47 -38 63 -52 182 -126 281 -175 235 -115 455 -170 739 -184 65
-3 283 17 363 34 148 32 317 90 439 153 88 45 190 105 209 124 7 7 17 13 20
13 4 0 18 10 32 23 14 12 45 38 70 58 61 49 157 145 200 198 19 24 47 58 61
75 137 164 269 458 319 711 28 139 38 394 20 531 -39 313 -159 605 -354 859
-56 73 -250 261 -326 317 -313 227 -657 340 -1030 336 -74 -1 -153 -3 -175 -5z
m-182 -391 c-820 -808 -954 -943 -951 -956 3 -13 314 -332 1120 -1147 97 -98
181 -179 186 -179 13 0 402 381 402 394 0 9 -135 156 -144 156 -2 0 -39 -36
-84 -79 -86 -86 -128 -105 -173 -80 -38 20 -929 918 -930 937 -4 53 4 62 287
342 130 129 330 328 444 443 180 180 212 207 239 207 37 0 49 -12 306 -299 22
-25 54 -59 70 -76 26 -28 172 -187 230 -250 33 -37 199 -217 211 -229 5 -6 33
-37 62 -69 85 -94 95 -77 -210 -383 -145 -145 -264 -268 -266 -273 -3 -10 135
-151 147 -151 12 0 80 59 177 155 477 471 555 551 552 567 -2 9 -229 245 -504
525 -684 693 -704 713 -704 720 0 9 154 -6 228 -22 78 -18 168 -43 197 -55 11
-5 31 -12 45 -16 48 -13 257 -121 326 -169 121 -84 147 -106 249 -209 333
-338 505 -807 466 -1266 l-9 -115 -129 -125 c-111 -107 -315 -301 -449 -426
-21 -20 -111 -105 -199 -189 -221 -211 -338 -322 -614 -582 -43 -42 -74 -63
-90 -63 -13 0 -22 2 -20 4 2 3 187 189 412 414 224 225 407 416 407 424 0 8
-185 198 -411 422 l-410 409 78 74 c201 193 303 298 301 309 -4 18 -430 454
-442 454 -20 -1 -456 -425 -456 -444 0 -10 113 -130 311 -332 l60 -60 -116
-117 c-73 -75 -113 -122 -109 -130 17 -28 108 -127 117 -127 5 0 48 37 94 82
99 98 106 102 135 87 23 -11 570 -563 597 -601 19 -28 10 -42 -105 -165 -110
-118 -117 -126 -237 -257 -213 -232 -267 -286 -285 -286 -25 0 -652 635 -652
660 0 14 32 53 85 105 47 46 85 88 85 93 0 4 -27 37 -60 71 -53 56 -62 62 -77
50 -38 -31 -293 -294 -293 -303 0 -5 187 -195 417 -423 382 -379 414 -413 385
-413 -17 0 -35 6 -39 14 -4 7 -37 38 -73 67 -36 30 -70 58 -76 64 -6 5 -31 28
-55 50 -24 22 -80 72 -124 110 -43 39 -91 81 -106 95 -15 14 -43 39 -62 55
-18 17 -67 60 -108 97 -41 37 -86 77 -100 90 -88 76 -156 137 -184 163 -18 17
-63 57 -100 90 -38 33 -73 65 -79 70 -6 6 -47 42 -91 80 -140 123 -158 139
-224 202 -36 34 -80 70 -98 80 -28 15 -33 24 -40 73 -15 104 -9 397 11 504 35
194 95 358 191 526 165 286 421 525 705 657 113 52 138 63 149 63 6 0 19 4 29
9 64 35 283 78 452 89 8 1 -116 -128 -277 -286z"/>
<path d="M1756 1503 l-79 -85 89 -85 88 -84 85 86 85 86 -84 84 c-47 47 -89
85 -95 84 -5 0 -45 -39 -89 -86z"/>
</g>
</svg>
