<?xml version="1.0" standalone="no"?>
<!DOCTYPE svg PUBLIC "-//W3C//DTD SVG 20010904//EN"
 "http://www.w3.org/TR/2001/REC-SVG-20010904/DTD/svg10.dtd">
<svg version="1.0" xmlns="http://www.w3.org/2000/svg"
 width="361.000000pt" height="361.000000pt" viewBox="0 0 361.000000 361.000000"
 preserveAspectRatio="xMidYMid meet">
<metadata>
Created by potrace 1.16, written by Peter Selinger 2001-2019
</metadata>
<g transform="translate(0.000000,361.000000) scale(0.100000,-0.100000)"
fill="#000000" stroke="none">
<path d="M1625 3510 c-255 -33 -424 -84 -650 -196 -49 -24 -94 -44 -98 -44
-42 0 -358 -295 -459 -428 -23 -32 -54 -71 -68 -88 -60 -70 -166 -298 -205
-440 -72 -262 -68 -229 -69 -499 -1 -224 1 -260 22 -351 115 -522 460 -964
939 -1203 480 -239 1041 -241 1528 -5 331 160 589 424 758 774 30 63 58 126
62 140 4 14 11 30 15 35 4 6 15 33 23 61 8 27 24 72 35 100 33 80 52 256 52
482 0 143 -4 217 -14 250 -7 26 -28 97 -46 157 -67 232 -159 434 -255 560 -39
51 -224 236 -294 295 -30 25 -59 50 -65 55 -77 72 -248 179 -332 209 -44 15
-86 31 -94 35 -9 5 -85 25 -170 45 -85 21 -168 42 -185 47 -39 13 -353 20
-430 9z m305 -30 c194 -20 404 -74 569 -146 29 -13 57 -24 62 -24 18 0 224
-144 314 -220 59 -50 202 -196 250 -257 28 -35 53 -63 58 -63 4 0 7 -7 7 -15
0 -8 5 -15 10 -15 6 0 10 -7 10 -15 0 -8 4 -15 8 -15 18 0 129 -243 180 -395
61 -181 76 -274 75 -455 0 -91 -6 -203 -12 -250 -9 -73 -14 -88 -38 -109 -16
-13 -41 -35 -58 -50 -16 -14 -61 -51 -100 -81 -38 -30 -76 -59 -83 -65 -7 -5
-18 -15 -25 -20 -7 -6 -39 -28 -72 -50 -33 -22 -62 -43 -65 -46 -12 -13 -162
-98 -250 -141 -107 -52 -140 -67 -225 -98 -33 -13 -69 -26 -80 -31 -26 -10
-114 -34 -193 -54 -35 -8 -129 -20 -210 -26 -81 -5 -153 -12 -159 -14 -14 -5
-63 -105 -63 -127 0 -24 -22 -39 -37 -27 -7 7 -13 17 -13 23 0 24 -59 133 -75
140 -9 3 -47 6 -83 6 -137 1 -322 31 -542 88 -52 13 -113 28 -135 34 -22 5
-47 13 -55 17 -9 5 -31 12 -49 16 -111 24 -388 159 -537 261 -171 117 -171
116 -183 186 -48 265 -34 602 34 823 84 274 137 381 271 548 226 281 380 401
694 540 58 25 183 66 236 77 284 58 389 67 564 50z"/>
<path d="M1801 3376 c-7 -8 -18 -94 -26 -193 -8 -98 -24 -279 -34 -402 -24
-276 -25 -271 70 -271 83 0 94 12 79 87 -5 26 -16 210 -25 408 -10 211 -21
365 -27 372 -13 17 -23 16 -37 -1z"/>
<path d="M2679 3017 c-18 -14 -117 -97 -133 -112 -12 -12 -189 -161 -221 -187
-11 -9 -56 -47 -100 -85 -45 -37 -100 -84 -123 -103 -56 -46 -56 -72 1 -128
23 -23 50 -42 60 -42 9 0 29 17 45 39 32 44 106 132 143 170 14 14 49 53 79
86 46 52 274 297 295 317 11 11 -4 58 -18 58 -6 0 -19 -6 -28 -13z"/>
<path d="M921 3010 c-24 -14 -4 -54 67 -136 37 -44 126 -149 197 -234 177
-213 244 -289 266 -301 16 -8 28 -1 69 37 28 26 50 55 50 64 0 10 -14 28 -31
41 -16 13 -40 32 -52 42 -68 57 -119 101 -149 130 -19 18 -70 64 -114 103 -43
40 -119 111 -169 159 -101 97 -115 107 -134 95z"/>
<path d="M1734 2471 c-96 -25 -193 -102 -240 -192 -26 -49 -29 -63 -29 -159 0
-92 3 -112 26 -160 14 -30 47 -77 74 -103 175 -177 484 -123 588 102 18 38 21
65 22 156 0 102 -2 114 -29 165 -61 117 -175 190 -305 196 -42 2 -90 0 -107
-5z"/>
<path d="M2233 2210 c-32 -29 -33 -120 -2 -149 17 -15 27 -18 46 -10 28 11
361 30 620 36 176 4 201 10 187 46 -9 24 -26 27 -229 43 -344 26 -540 43 -570
49 -23 5 -36 1 -52 -15z"/>
<path d="M1220 2164 c-74 -8 -254 -19 -400 -26 -221 -11 -265 -15 -267 -28 -6
-33 14 -40 133 -50 65 -5 196 -16 289 -25 458 -40 429 -40 441 -2 10 32 5 118
-7 134 -13 15 -9 15 -189 -3z"/>
<path d="M2110 1848 c-54 -57 -52 -77 13 -125 79 -60 289 -250 492 -445 73
-70 99 -82 110 -48 5 15 -39 73 -192 256 -338 405 -338 404 -363 404 -11 0
-37 -19 -60 -42z"/>
<path d="M1383 1773 c-40 -49 -96 -113 -125 -144 -29 -31 -82 -89 -118 -130
-36 -41 -104 -114 -152 -164 -87 -89 -103 -117 -72 -129 29 -11 12 -23 188
128 111 95 168 143 257 217 257 217 245 198 179 267 -60 62 -73 58 -157 -45z"/>
<path d="M1756 1707 c-15 -11 -18 -22 -12 -58 11 -75 36 -527 36 -655 0 -127
10 -161 43 -148 21 8 23 17 36 189 13 159 28 334 42 478 18 192 13 207 -75
207 -29 0 -60 -6 -70 -13z"/>
</g>
</svg>
