<?xml version="1.0" standalone="no"?>
<!DOCTYPE svg PUBLIC "-//W3C//DTD SVG 20010904//EN"
 "http://www.w3.org/TR/2001/REC-SVG-20010904/DTD/svg10.dtd">
<svg version="1.0" xmlns="http://www.w3.org/2000/svg"
 width="361.000000pt" height="361.000000pt" viewBox="0 0 361.000000 361.000000"
 preserveAspectRatio="xMidYMid meet">
<metadata>
Created by potrace 1.16, written by Peter Selinger 2001-2019
</metadata>
<g transform="translate(0.000000,361.000000) scale(0.100000,-0.100000)"
fill="#000000" stroke="none">
<path d="M1659 3536 c-2 -3 -43 -10 -89 -15 -127 -16 -275 -54 -339 -87 -14
-8 -33 -14 -41 -14 -8 0 -24 -7 -34 -15 -11 -8 -25 -15 -32 -15 -44 0 -363
-212 -472 -314 -80 -74 -194 -194 -213 -223 -10 -15 -38 -55 -63 -88 -100
-133 -167 -280 -216 -470 -44 -171 -61 -314 -63 -534 -1 -167 2 -213 21 -310
24 -125 83 -308 136 -423 33 -72 130 -230 159 -259 8 -9 39 -45 68 -80 61 -75
109 -121 257 -251 29 -26 92 -71 177 -129 129 -87 373 -182 530 -205 207 -31
276 -36 450 -31 205 6 267 16 470 82 135 44 293 122 395 194 47 33 105 75 130
92 49 35 164 160 251 276 152 202 279 478 333 728 43 199 47 580 7 750 -55
238 -81 301 -207 505 -105 171 -277 364 -414 465 -196 146 -245 176 -350 215
-19 7 -48 21 -65 30 -16 10 -52 26 -80 35 -27 10 -55 22 -60 26 -42 31 -306
68 -486 69 -86 0 -158 -2 -160 -4z m351 -81 c79 -6 143 -18 225 -42 48 -14 85
-29 190 -78 28 -13 61 -27 75 -31 41 -12 128 -62 204 -117 39 -29 90 -65 114
-81 59 -40 216 -202 299 -308 81 -104 185 -280 213 -363 11 -33 24 -69 29 -80
20 -46 52 -177 67 -280 15 -96 15 -133 5 -290 -14 -200 -30 -315 -59 -420 -33
-117 -99 -281 -147 -367 -25 -44 -45 -82 -45 -84 0 -6 -87 -135 -120 -179 -82
-106 -202 -231 -232 -241 -11 -3 -36 8 -65 30 -27 20 -61 46 -78 58 -35 26
-161 152 -298 301 -127 138 -124 137 -237 15 -125 -134 -197 -206 -270 -268
-36 -30 -67 -58 -70 -61 -3 -3 -20 -14 -37 -24 -18 -11 -33 -25 -33 -32 0 -22
293 -307 331 -321 14 -6 11 -42 -3 -42 -16 1 -31 12 -121 93 -133 120 -404
403 -472 493 -84 112 -85 111 -219 -9 -17 -15 -71 -59 -121 -96 -49 -38 -126
-105 -170 -150 -44 -45 -85 -81 -92 -81 -32 0 -16 26 67 106 49 48 90 93 90
100 0 18 -47 71 -103 115 -63 50 -92 50 -138 3 -18 -20 -58 -52 -87 -71 -63
-41 -54 -46 -166 87 -151 179 -216 293 -289 510 -57 165 -71 280 -63 505 12
337 45 529 126 723 75 180 177 330 324 475 82 81 275 237 294 237 6 0 12 4 14
8 7 18 150 95 283 152 28 11 59 25 70 30 76 33 261 69 405 79 112 8 152 8 310
-4z"/>
<path d="M1655 3114 c-5 -2 -75 -11 -155 -19 -138 -14 -188 -22 -360 -59 -99
-21 -267 -62 -375 -91 -33 -9 -75 -20 -93 -25 -46 -11 -68 -34 -86 -88 -20
-56 -20 -87 -2 -182 74 -384 189 -642 370 -832 74 -79 94 -84 172 -41 156 84
307 157 359 173 181 56 361 82 575 84 191 1 211 -4 428 -112 56 -28 170 -141
209 -206 43 -74 100 -234 114 -325 29 -184 32 -387 7 -529 -6 -35 -8 -65 -5
-69 6 -5 63 36 126 92 118 105 207 300 267 590 24 118 26 143 21 285 -7 203
-45 382 -114 528 -74 157 -232 333 -438 487 -66 50 -122 93 -125 96 -22 25
-293 169 -318 169 -7 0 -20 4 -30 9 -69 38 -268 71 -420 70 -64 0 -121 -2
-127 -5z m540 -520 c116 -25 269 -94 350 -158 143 -112 196 -171 323 -363 37
-55 17 -52 -45 8 -54 52 -88 83 -115 104 -22 18 -181 111 -218 127 -36 17
-110 42 -287 99 -114 36 -110 30 -92 125 13 71 16 76 37 70 10 -3 31 -8 47
-12z"/>
<path d="M1665 1914 c-54 -12 -131 -38 -139 -45 -6 -5 -16 -9 -24 -9 -7 0 -32
-8 -55 -18 -23 -10 -62 -27 -87 -37 -25 -11 -87 -46 -138 -79 -109 -70 -118
-87 -80 -155 14 -25 47 -86 73 -136 57 -109 79 -135 117 -135 24 0 70 21 88
40 3 3 48 33 100 67 199 129 336 170 585 175 130 3 130 3 197 -31 96 -48 109
-32 59 68 -53 105 -176 231 -224 231 -8 0 -45 14 -83 32 -67 32 -73 32 -219
34 -82 2 -159 0 -170 -2z"/>
<path d="M1740 1400 c-8 -4 -44 -20 -80 -35 -87 -37 -205 -105 -219 -128 -10
-14 -6 -28 16 -70 31 -58 114 -147 136 -147 8 0 36 26 63 58 27 31 59 65 72
75 12 10 28 24 35 31 19 19 111 73 138 81 13 4 29 11 34 16 6 4 42 10 79 13
38 3 71 8 73 10 3 3 2 13 -1 24 -15 46 -291 104 -346 72z"/>
</g>
</svg>
